<svg xmlns="http://www.w3.org/2000/svg" xmlns:xlink="http://www.w3.org/1999/xlink" width="703" zoomAndPan="magnify" viewBox="0 0 527.25 530.250006" height="707" preserveAspectRatio="xMidYMid meet" version="1.0"><defs><clipPath id="bbf4226fc0"><path d="M 19 0.00390625 L 526.5 0.00390625 L 526.5 510 L 19 510 Z M 19 0.00390625 " clip-rule="nonzero"/></clipPath></defs><g clip-path="url(#bbf4226fc0)"><path fill="#d1d1d1" d="M 427.757812 60.035156 L 341.347656 146.421875 C 262.492188 87.792969 150.375 94.246094 78.8125 165.78125 C 0.21875 244.410156 0.21875 372.089844 78.8125 450.71875 C 157.410156 529.351562 285.160156 529.351562 363.753906 450.71875 C 435.316406 379.175781 441.742188 267.042969 383.121094 188.175781 L 467.273438 104.007812 L 467.273438 183.253906 L 526.328125 183.253906 L 526.328125 0.0585938 L 342.5625 1.761719 L 343.171875 60.816406 Z M 120.585938 408.957031 C 65.003906 353.375 65.003906 263.125 120.585938 207.535156 C 176.167969 151.953125 266.398438 151.953125 321.980469 207.535156 C 377.5625 263.125 377.5625 353.375 321.980469 408.957031 C 266.398438 464.546875 176.167969 464.546875 120.585938 408.957031 Z M 120.585938 408.957031 " fill-opacity="1" fill-rule="evenodd"/><path fill="#d1d1d1" d="M 427.757812 60.035156 L 341.347656 146.421875 C 262.492188 87.792969 150.375 94.246094 78.8125 165.78125 C 0.21875 244.410156 0.21875 372.089844 78.8125 450.71875 C 157.410156 529.351562 285.160156 529.351562 363.753906 450.71875 C 435.316406 379.175781 441.742188 267.042969 383.121094 188.175781 L 467.273438 104.007812 L 467.273438 183.253906 L 526.328125 183.253906 L 526.328125 0.0585938 L 342.5625 1.761719 L 343.171875 60.816406 Z M 120.585938 408.957031 C 65.003906 353.375 65.003906 263.125 120.585938 207.535156 C 176.167969 151.953125 266.398438 151.953125 321.980469 207.535156 C 377.5625 263.125 377.5625 353.375 321.980469 408.957031 C 266.398438 464.546875 176.167969 464.546875 120.585938 408.957031 Z M 120.585938 408.957031 " fill-opacity="1" fill-rule="evenodd"/></g></svg>