<svg xmlns="http://www.w3.org/2000/svg" xmlns:xlink="http://www.w3.org/1999/xlink" width="719" zoomAndPan="magnify" viewBox="0 0 539.25 530.249967" height="707" preserveAspectRatio="xMidYMid meet" version="1.0"><defs><clipPath id="1bade15da8"><path d="M 7 79 L 308 79 L 308 529.5 L 7 529.5 Z M 7 79 " clip-rule="nonzero"/></clipPath><clipPath id="a2063a6f99"><path d="M 7 79 L 308 79 L 308 529.5 L 7 529.5 Z M 7 79 " clip-rule="nonzero"/></clipPath></defs><g clip-path="url(#1bade15da8)"><path fill="#d1d1d1" d="M 307.382812 229.347656 C 307.390625 222.640625 306.945312 215.960938 306.050781 209.3125 C 305.15625 202.664062 303.816406 196.101562 302.035156 189.636719 C 300.253906 183.167969 298.046875 176.847656 295.414062 170.675781 C 292.777344 164.507812 289.742188 158.542969 286.300781 152.78125 C 281.945312 153.96875 277.726562 155.519531 273.640625 157.433594 C 269.554688 159.347656 265.660156 161.597656 261.960938 164.183594 C 258.265625 166.765625 254.816406 169.652344 251.613281 172.832031 C 248.414062 176.011719 245.507812 179.445312 242.898438 183.125 C 246.695312 190.238281 249.570312 197.703125 251.527344 205.527344 C 253.480469 213.347656 254.457031 221.289062 254.457031 229.347656 C 254.457031 230.9375 254.417969 232.523438 254.339844 234.109375 C 254.261719 235.695312 254.144531 237.28125 253.988281 238.859375 C 253.832031 240.441406 253.636719 242.015625 253.40625 243.585938 C 253.171875 245.15625 252.902344 246.722656 252.589844 248.277344 C 252.28125 249.835938 251.933594 251.386719 251.546875 252.925781 C 251.160156 254.464844 250.738281 255.996094 250.277344 257.515625 C 249.816406 259.035156 249.320312 260.542969 248.785156 262.039062 C 248.25 263.535156 247.675781 265.015625 247.070312 266.480469 C 246.460938 267.949219 245.820312 269.398438 245.140625 270.835938 C 244.460938 272.269531 243.746094 273.6875 243 275.089844 C 242.25 276.488281 241.46875 277.871094 240.652344 279.234375 C 239.835938 280.59375 238.984375 281.9375 238.101562 283.257812 C 237.21875 284.578125 236.304688 285.875 235.359375 287.152344 C 234.414062 288.425781 233.4375 289.679688 232.429688 290.90625 C 231.421875 292.132812 230.386719 293.335938 229.320312 294.511719 C 228.253906 295.6875 227.160156 296.839844 226.035156 297.960938 C 224.914062 299.085938 223.761719 300.179688 222.585938 301.246094 C 221.410156 302.3125 220.207031 303.347656 218.980469 304.355469 C 217.753906 305.363281 216.5 306.339844 215.226562 307.285156 C 213.949219 308.230469 212.652344 309.144531 211.332031 310.027344 C 210.011719 310.910156 208.671875 311.761719 207.308594 312.578125 C 205.945312 313.394531 204.566406 314.175781 203.164062 314.921875 C 201.765625 315.671875 200.34375 316.386719 198.910156 317.066406 C 197.472656 317.742188 196.023438 318.386719 194.554688 318.996094 C 193.089844 319.601562 191.609375 320.175781 190.113281 320.710938 C 188.617188 321.242188 187.109375 321.742188 185.589844 322.203125 C 184.070312 322.664062 182.539062 323.085938 181 323.472656 C 179.460938 323.859375 177.910156 324.207031 176.355469 324.515625 C 174.796875 324.828125 173.230469 325.097656 171.660156 325.332031 C 170.089844 325.5625 168.515625 325.757812 166.933594 325.914062 C 165.355469 326.070312 163.769531 326.1875 162.183594 326.265625 C 160.597656 326.34375 159.011719 326.382812 157.421875 326.382812 C 155.835938 326.382812 154.25 326.34375 152.664062 326.265625 C 151.078125 326.1875 149.492188 326.070312 147.914062 325.914062 C 146.332031 325.757812 144.757812 325.5625 143.1875 325.332031 C 141.613281 325.097656 140.050781 324.828125 138.492188 324.515625 C 136.9375 324.207031 135.386719 323.859375 133.847656 323.472656 C 132.304688 323.085938 130.777344 322.664062 129.257812 322.203125 C 127.738281 321.742188 126.230469 321.242188 124.734375 320.710938 C 123.238281 320.175781 121.757812 319.601562 120.289062 318.996094 C 118.824219 318.386719 117.371094 317.742188 115.9375 317.066406 C 114.5 316.386719 113.082031 315.671875 111.683594 314.921875 C 110.28125 314.175781 108.902344 313.394531 107.539062 312.578125 C 106.175781 311.761719 104.835938 310.910156 103.515625 310.027344 C 102.195312 309.144531 100.898438 308.230469 99.621094 307.285156 C 98.347656 306.339844 97.09375 305.363281 95.867188 304.355469 C 94.640625 303.347656 93.4375 302.3125 92.261719 301.246094 C 91.082031 300.179688 89.933594 299.085938 88.8125 297.960938 C 87.6875 296.839844 86.59375 295.6875 85.527344 294.511719 C 84.460938 293.335938 83.425781 292.132812 82.417969 290.90625 C 81.410156 289.679688 80.433594 288.425781 79.488281 287.152344 C 78.539062 285.875 77.625 284.578125 76.742188 283.257812 C 75.863281 281.9375 75.011719 280.59375 74.195312 279.234375 C 73.378906 277.871094 72.597656 276.488281 71.847656 275.089844 C 71.101562 273.6875 70.386719 272.269531 69.707031 270.835938 C 69.027344 269.398438 68.386719 267.949219 67.777344 266.480469 C 67.167969 265.015625 66.597656 263.535156 66.0625 262.039062 C 65.527344 260.542969 65.03125 259.035156 64.570312 257.515625 C 64.109375 255.996094 63.683594 254.464844 63.300781 252.925781 C 62.914062 251.386719 62.566406 249.835938 62.253906 248.277344 C 61.945312 246.722656 61.675781 245.15625 61.441406 243.585938 C 61.207031 242.015625 61.015625 240.441406 60.859375 238.859375 C 60.703125 237.28125 60.585938 235.695312 60.507812 234.109375 C 60.429688 232.523438 60.390625 230.9375 60.390625 229.347656 C 60.390625 227.761719 60.429688 226.175781 60.507812 224.585938 C 60.585938 223 60.703125 221.417969 60.859375 219.839844 C 61.015625 218.257812 61.207031 216.683594 61.441406 215.113281 C 61.675781 213.539062 61.945312 211.976562 62.253906 210.417969 C 62.566406 208.863281 62.914062 207.3125 63.300781 205.773438 C 63.683594 204.230469 64.109375 202.703125 64.570312 201.183594 C 65.03125 199.664062 65.527344 198.15625 66.0625 196.660156 C 66.597656 195.164062 67.167969 193.683594 67.777344 192.214844 C 68.386719 190.75 69.027344 189.296875 69.707031 187.863281 C 70.386719 186.425781 71.101562 185.007812 71.847656 183.609375 C 72.597656 182.207031 73.378906 180.828125 74.195312 179.464844 C 75.011719 178.101562 75.863281 176.761719 76.742188 175.441406 C 77.625 174.121094 78.539062 172.824219 79.488281 171.546875 C 80.433594 170.269531 81.410156 169.019531 82.417969 167.792969 C 83.425781 166.566406 84.460938 165.363281 85.527344 164.1875 C 86.59375 163.007812 87.6875 161.859375 88.8125 160.738281 C 89.933594 159.613281 91.082031 158.519531 92.261719 157.453125 C 93.4375 156.386719 94.640625 155.347656 95.867188 154.34375 C 97.09375 153.335938 98.347656 152.359375 99.621094 151.410156 C 100.898438 150.464844 102.195312 149.550781 103.515625 148.667969 C 104.835938 147.789062 106.175781 146.9375 107.539062 146.121094 C 108.902344 145.304688 110.28125 144.523438 111.683594 143.773438 C 113.082031 143.027344 114.5 142.3125 115.9375 141.632812 C 117.371094 140.953125 118.824219 140.3125 120.289062 139.703125 C 121.757812 139.09375 123.238281 138.523438 124.734375 137.988281 C 126.230469 137.453125 127.738281 136.957031 129.257812 136.496094 C 130.777344 136.035156 132.304688 135.609375 133.847656 135.226562 C 135.386719 134.839844 136.9375 134.492188 138.492188 134.179688 C 140.050781 133.871094 141.613281 133.601562 143.1875 133.367188 C 144.757812 133.132812 146.332031 132.941406 147.914062 132.785156 C 149.492188 132.628906 151.078125 132.511719 152.664062 132.433594 C 154.25 132.355469 155.835938 132.316406 157.421875 132.316406 C 161.675781 132.316406 165.910156 132.578125 170.125 133.109375 C 176.011719 124.710938 182.613281 116.925781 189.941406 109.75 C 197.265625 102.570312 205.183594 96.128906 213.703125 90.417969 C 204.777344 86.746094 195.578125 83.984375 186.105469 82.128906 C 176.636719 80.273438 167.074219 79.359375 157.421875 79.390625 C 155.109375 79.390625 152.792969 79.441406 150.480469 79.546875 C 148.167969 79.652344 145.859375 79.8125 143.554688 80.027344 C 141.25 80.238281 138.949219 80.507812 136.65625 80.828125 C 134.363281 81.144531 132.078125 81.519531 129.804688 81.945312 C 127.527344 82.371094 125.261719 82.847656 123.007812 83.378906 C 120.757812 83.910156 118.515625 84.492188 116.289062 85.125 C 114.0625 85.761719 111.851562 86.445312 109.65625 87.183594 C 107.460938 87.917969 105.285156 88.707031 103.128906 89.542969 C 100.96875 90.382812 98.832031 91.269531 96.714844 92.207031 C 94.597656 93.140625 92.503906 94.128906 90.429688 95.160156 C 88.359375 96.195312 86.3125 97.277344 84.292969 98.40625 C 82.269531 99.535156 80.273438 100.707031 78.308594 101.929688 C 76.339844 103.148438 74.402344 104.414062 72.496094 105.726562 C 70.585938 107.039062 68.710938 108.390625 66.863281 109.789062 C 65.019531 111.1875 63.207031 112.625 61.425781 114.109375 C 59.648438 115.589844 57.902344 117.113281 56.195312 118.675781 C 54.488281 120.238281 52.816406 121.839844 51.183594 123.476562 C 49.546875 125.117188 47.953125 126.796875 46.394531 128.507812 C 44.839844 130.222656 43.324219 131.972656 41.847656 133.757812 C 40.371094 135.539062 38.9375 137.359375 37.546875 139.207031 C 36.15625 141.058594 34.808594 142.941406 33.503906 144.851562 C 32.199219 146.765625 30.941406 148.707031 29.726562 150.679688 C 28.511719 152.652344 27.34375 154.648438 26.222656 156.675781 C 25.101562 158.699219 24.027344 160.75 23 162.824219 C 21.976562 164.902344 20.996094 167 20.066406 169.121094 C 19.140625 171.238281 18.257812 173.382812 17.429688 175.542969 C 16.597656 177.703125 15.820312 179.882812 15.089844 182.082031 C 14.359375 184.277344 13.683594 186.492188 13.058594 188.71875 C 12.429688 190.949219 11.855469 193.191406 11.332031 195.445312 C 10.808594 197.703125 10.339844 199.96875 9.921875 202.246094 C 9.503906 204.523438 9.140625 206.808594 8.828125 209.101562 C 8.515625 211.394531 8.257812 213.695312 8.054688 216.003906 C 7.847656 218.308594 7.695312 220.617188 7.597656 222.929688 C 7.5 225.242188 7.457031 227.558594 7.464844 229.875 C 7.472656 232.1875 7.535156 234.503906 7.652344 236.816406 C 7.769531 239.125 7.9375 241.433594 8.160156 243.738281 C 8.386719 246.042969 8.660156 248.34375 8.992188 250.632812 C 9.320312 252.925781 9.703125 255.207031 10.140625 257.480469 C 10.574219 259.753906 11.0625 262.019531 11.601562 264.269531 C 12.144531 266.519531 12.734375 268.757812 13.378906 270.980469 C 14.023438 273.207031 14.71875 275.414062 15.464844 277.605469 C 16.210938 279.796875 17.007812 281.96875 17.855469 284.125 C 18.703125 286.28125 19.597656 288.414062 20.542969 290.527344 C 21.488281 292.640625 22.484375 294.730469 23.527344 296.796875 C 24.570312 298.863281 25.660156 300.90625 26.796875 302.921875 C 27.933594 304.9375 29.117188 306.929688 30.347656 308.890625 C 31.578125 310.851562 32.851562 312.785156 34.171875 314.6875 C 35.488281 316.589844 36.851562 318.460938 38.257812 320.300781 C 39.664062 322.140625 41.109375 323.945312 42.601562 325.71875 C 44.089844 327.492188 45.621094 329.226562 47.191406 330.929688 C 48.757812 332.628906 50.367188 334.296875 52.015625 335.921875 C 53.660156 337.550781 55.347656 339.136719 57.066406 340.6875 C 58.785156 342.234375 60.542969 343.742188 62.332031 345.210938 C 64.125 346.679688 65.945312 348.105469 67.804688 349.488281 C 69.660156 350.871094 71.546875 352.210938 73.464844 353.507812 C 75.386719 354.800781 77.332031 356.050781 79.308594 357.257812 C 81.285156 358.464844 83.289062 359.621094 85.320312 360.734375 C 87.351562 361.847656 89.40625 362.914062 91.484375 363.929688 C 93.5625 364.949219 95.667969 365.917969 97.789062 366.835938 C 99.914062 367.757812 102.058594 368.628906 104.226562 369.449219 C 106.390625 370.269531 108.574219 371.039062 110.773438 371.757812 C 112.972656 372.476562 115.191406 373.144531 117.421875 373.761719 C 119.652344 374.378906 121.898438 374.945312 124.15625 375.457031 C 126.414062 375.96875 128.679688 376.429688 130.960938 376.839844 L 130.960938 432.234375 L 113.316406 432.234375 C 112.738281 432.238281 112.167969 432.292969 111.597656 432.410156 C 111.03125 432.523438 110.480469 432.691406 109.945312 432.914062 C 109.410156 433.136719 108.90625 433.40625 108.421875 433.730469 C 107.941406 434.050781 107.496094 434.417969 107.089844 434.824219 C 106.679688 435.234375 106.3125 435.679688 105.992188 436.160156 C 105.667969 436.640625 105.398438 437.148438 105.175781 437.683594 C 104.953125 438.21875 104.785156 438.769531 104.671875 439.335938 C 104.554688 439.902344 104.5 440.476562 104.496094 441.054688 L 104.496094 476.339844 C 104.5 476.917969 104.554688 477.492188 104.671875 478.058594 C 104.785156 478.625 104.953125 479.175781 105.175781 479.710938 C 105.398438 480.246094 105.667969 480.753906 105.992188 481.234375 C 106.3125 481.714844 106.679688 482.160156 107.089844 482.570312 C 107.496094 482.980469 107.941406 483.34375 108.421875 483.667969 C 108.90625 483.988281 109.410156 484.261719 109.945312 484.484375 C 110.480469 484.707031 111.03125 484.875 111.597656 484.988281 C 112.167969 485.101562 112.738281 485.160156 113.316406 485.160156 L 130.960938 485.160156 L 130.960938 520.445312 C 130.960938 521.023438 131.019531 521.597656 131.132812 522.164062 C 131.25 522.730469 131.417969 523.28125 131.640625 523.816406 C 131.859375 524.351562 132.132812 524.859375 132.453125 525.339844 C 132.777344 525.820312 133.140625 526.265625 133.550781 526.675781 C 133.960938 527.085938 134.40625 527.449219 134.886719 527.773438 C 135.367188 528.09375 135.875 528.367188 136.410156 528.589844 C 136.945312 528.8125 137.496094 528.980469 138.0625 529.09375 C 138.628906 529.207031 139.203125 529.265625 139.78125 529.265625 L 175.066406 529.265625 C 175.644531 529.265625 176.21875 529.207031 176.785156 529.09375 C 177.351562 528.980469 177.902344 528.8125 178.4375 528.589844 C 178.972656 528.367188 179.480469 528.09375 179.960938 527.773438 C 180.441406 527.449219 180.886719 527.085938 181.296875 526.675781 C 181.703125 526.265625 182.070312 525.820312 182.390625 525.339844 C 182.714844 524.859375 182.984375 524.351562 183.207031 523.816406 C 183.429688 523.28125 183.597656 522.730469 183.714844 522.164062 C 183.828125 521.597656 183.886719 521.023438 183.886719 520.445312 L 183.886719 485.160156 L 201.527344 485.160156 C 202.109375 485.160156 202.679688 485.101562 203.25 484.988281 C 203.816406 484.875 204.367188 484.707031 204.902344 484.484375 C 205.433594 484.261719 205.941406 483.988281 206.421875 483.667969 C 206.90625 483.34375 207.351562 482.980469 207.757812 482.570312 C 208.167969 482.160156 208.535156 481.714844 208.855469 481.234375 C 209.175781 480.753906 209.449219 480.246094 209.671875 479.710938 C 209.894531 479.175781 210.0625 478.625 210.175781 478.058594 C 210.289062 477.492188 210.347656 476.917969 210.351562 476.339844 L 210.351562 441.054688 C 210.347656 440.476562 210.289062 439.902344 210.175781 439.335938 C 210.0625 438.769531 209.894531 438.21875 209.671875 437.683594 C 209.449219 437.148438 209.175781 436.640625 208.855469 436.160156 C 208.535156 435.679688 208.167969 435.234375 207.757812 434.824219 C 207.351562 434.417969 206.90625 434.050781 206.421875 433.730469 C 205.941406 433.40625 205.433594 433.136719 204.902344 432.914062 C 204.367188 432.691406 203.816406 432.523438 203.25 432.410156 C 202.679688 432.292969 202.109375 432.238281 201.527344 432.234375 L 183.886719 432.234375 L 183.886719 376.839844 C 186.027344 376.453125 188.160156 376.023438 190.28125 375.546875 C 192.40625 375.070312 194.515625 374.546875 196.617188 373.976562 C 198.71875 373.410156 200.804688 372.792969 202.878906 372.136719 C 204.949219 371.476562 207.007812 370.769531 209.050781 370.023438 C 211.09375 369.273438 213.117188 368.480469 215.125 367.640625 C 217.136719 366.804688 219.125 365.925781 221.09375 365 C 223.0625 364.074219 225.011719 363.109375 226.941406 362.101562 C 228.867188 361.09375 230.773438 360.042969 232.65625 358.949219 C 234.535156 357.859375 236.394531 356.726562 238.226562 355.554688 C 240.058594 354.382812 241.867188 353.171875 243.644531 351.917969 C 245.425781 350.667969 247.175781 349.378906 248.902344 348.050781 C 250.625 346.722656 252.320312 345.359375 253.984375 343.960938 C 255.648438 342.558594 257.28125 341.121094 258.882812 339.648438 C 260.484375 338.175781 262.054688 336.671875 263.589844 335.128906 C 265.128906 333.589844 266.628906 332.015625 268.097656 330.410156 C 269.566406 328.804688 271 327.167969 272.394531 325.5 C 273.792969 323.832031 275.152344 322.132812 276.472656 320.40625 C 277.796875 318.679688 279.082031 316.925781 280.328125 315.140625 C 281.574219 313.359375 282.78125 311.550781 283.949219 309.714844 C 285.117188 307.878906 286.246094 306.015625 287.332031 304.132812 C 288.417969 302.246094 289.464844 300.339844 290.46875 298.410156 C 291.472656 296.480469 292.433594 294.527344 293.351562 292.554688 C 294.269531 290.585938 295.144531 288.59375 295.976562 286.582031 C 296.808594 284.574219 297.597656 282.546875 298.34375 280.5 C 299.085938 278.457031 299.785156 276.398438 300.4375 274.320312 C 301.09375 272.246094 301.703125 270.160156 302.265625 268.058594 C 302.828125 265.957031 303.347656 263.84375 303.820312 261.71875 C 304.289062 259.59375 304.714844 257.460938 305.09375 255.320312 C 305.472656 253.175781 305.804688 251.027344 306.089844 248.871094 C 306.375 246.714844 306.613281 244.550781 306.804688 242.382812 C 306.996094 240.214844 307.136719 238.046875 307.234375 235.871094 C 307.332031 233.699219 307.378906 231.523438 307.382812 229.347656 Z M 307.382812 229.347656 " fill-opacity="1" fill-rule="nonzero"/></g><path fill="#d1d1d1" d="M 527.910156 0 L 422.058594 0 C 421.476562 0 420.90625 0.0585938 420.335938 0.175781 C 419.769531 0.289062 419.21875 0.457031 418.683594 0.679688 C 418.152344 0.902344 417.644531 1.171875 417.164062 1.496094 C 416.679688 1.816406 416.238281 2.183594 415.828125 2.589844 C 415.417969 3 415.050781 3.445312 414.730469 3.925781 C 414.410156 4.40625 414.136719 4.914062 413.914062 5.449219 C 413.691406 5.984375 413.523438 6.535156 413.410156 7.101562 C 413.296875 7.667969 413.238281 8.242188 413.234375 8.820312 L 413.234375 44.105469 C 413.238281 44.683594 413.296875 45.257812 413.410156 45.824219 C 413.523438 46.390625 413.691406 46.941406 413.914062 47.476562 C 414.136719 48.011719 414.410156 48.519531 414.730469 49 C 415.050781 49.480469 415.417969 49.925781 415.828125 50.335938 C 416.238281 50.746094 416.679688 51.109375 417.164062 51.433594 C 417.644531 51.753906 418.152344 52.027344 418.683594 52.25 C 419.21875 52.46875 419.769531 52.636719 420.335938 52.753906 C 420.90625 52.867188 421.476562 52.925781 422.058594 52.925781 L 444.902344 52.925781 L 392.066406 105.765625 C 385.882812 101.484375 379.410156 97.691406 372.652344 94.394531 C 365.894531 91.097656 358.921875 88.332031 351.742188 86.09375 C 344.5625 83.859375 337.253906 82.179688 329.816406 81.054688 C 322.382812 79.929688 314.902344 79.375 307.382812 79.390625 C 304.089844 79.386719 300.800781 79.496094 297.515625 79.710938 C 294.230469 79.925781 290.957031 80.246094 287.691406 80.679688 C 284.425781 81.109375 281.179688 81.648438 277.953125 82.292969 C 274.722656 82.9375 271.519531 83.6875 268.339844 84.542969 C 265.160156 85.398438 262.011719 86.359375 258.894531 87.421875 C 255.78125 88.484375 252.703125 89.648438 249.664062 90.914062 C 246.625 92.183594 243.628906 93.546875 240.679688 95.011719 C 237.730469 96.472656 234.832031 98.03125 231.984375 99.6875 C 229.140625 101.34375 226.351562 103.089844 223.617188 104.925781 C 220.886719 106.765625 218.21875 108.691406 215.613281 110.707031 C 213.011719 112.71875 210.476562 114.816406 208.007812 117 C 205.542969 119.179688 203.148438 121.441406 200.832031 123.777344 C 198.515625 126.117188 196.277344 128.53125 194.121094 131.015625 C 191.960938 133.503906 189.886719 136.058594 187.898438 138.679688 C 185.90625 141.304688 184.003906 143.988281 182.191406 146.738281 C 180.378906 149.484375 178.660156 152.292969 177.03125 155.152344 C 175.402344 158.015625 173.871094 160.925781 172.433594 163.890625 C 170.996094 166.851562 169.660156 169.859375 168.421875 172.910156 C 167.183594 175.960938 166.046875 179.050781 165.015625 182.175781 C 163.980469 185.300781 163.046875 188.457031 162.222656 191.644531 C 161.394531 194.832031 160.675781 198.042969 160.058594 201.277344 C 159.445312 204.511719 158.9375 207.761719 158.535156 211.03125 C 158.136719 214.300781 157.84375 217.578125 157.660156 220.863281 C 157.472656 224.152344 157.398438 227.441406 157.429688 230.734375 C 157.460938 234.027344 157.601562 237.3125 157.851562 240.597656 C 158.101562 243.878906 158.457031 247.152344 158.921875 250.410156 C 159.386719 253.671875 159.957031 256.910156 160.636719 260.132812 C 161.3125 263.355469 162.097656 266.550781 162.984375 269.722656 C 163.875 272.890625 164.867188 276.03125 165.960938 279.132812 C 167.058594 282.238281 168.253906 285.304688 169.550781 288.332031 C 170.851562 291.355469 172.246094 294.335938 173.738281 297.269531 C 175.234375 300.207031 176.820312 303.085938 178.507812 305.917969 C 182.855469 304.722656 187.074219 303.167969 191.164062 301.257812 C 195.25 299.34375 199.144531 297.097656 202.847656 294.523438 C 206.550781 291.945312 210.011719 289.074219 213.226562 285.90625 C 216.4375 282.742188 219.363281 279.324219 221.992188 275.660156 C 221.15625 274.117188 220.359375 272.550781 219.605469 270.964844 C 218.847656 269.378906 218.136719 267.769531 217.472656 266.144531 C 216.804688 264.519531 216.183594 262.878906 215.605469 261.21875 C 215.027344 259.558594 214.492188 257.886719 214.007812 256.199219 C 213.519531 254.507812 213.078125 252.808594 212.683594 251.097656 C 212.289062 249.386719 211.941406 247.664062 211.636719 245.933594 C 211.335938 244.203125 211.082031 242.464844 210.875 240.71875 C 210.667969 238.972656 210.507812 237.226562 210.398438 235.472656 C 210.285156 233.71875 210.21875 231.964844 210.203125 230.207031 C 210.1875 228.449219 210.21875 226.695312 210.296875 224.9375 C 210.375 223.183594 210.5 221.429688 210.671875 219.683594 C 210.847656 217.933594 211.066406 216.191406 211.335938 214.457031 C 211.605469 212.71875 211.917969 210.992188 212.28125 209.273438 C 212.644531 207.550781 213.050781 205.84375 213.503906 204.148438 C 213.960938 202.449219 214.460938 200.765625 215.007812 199.097656 C 215.550781 197.425781 216.144531 195.773438 216.78125 194.132812 C 217.414062 192.496094 218.09375 190.875 218.820312 189.277344 C 219.542969 187.675781 220.308594 186.09375 221.117188 184.535156 C 221.929688 182.976562 222.777344 181.4375 223.671875 179.925781 C 224.566406 178.414062 225.496094 176.925781 226.472656 175.460938 C 227.445312 174 228.457031 172.566406 229.507812 171.15625 C 230.5625 169.75 231.648438 168.371094 232.777344 167.023438 C 233.902344 165.675781 235.066406 164.355469 236.261719 163.070312 C 237.460938 161.785156 238.691406 160.535156 239.957031 159.316406 C 241.222656 158.097656 242.519531 156.914062 243.851562 155.765625 C 245.179688 154.617188 246.542969 153.507812 247.933594 152.433594 C 249.320312 151.359375 250.742188 150.320312 252.1875 149.324219 C 253.632812 148.328125 255.105469 147.371094 256.605469 146.453125 C 258.101562 145.535156 259.625 144.660156 261.171875 143.824219 C 262.71875 142.988281 264.285156 142.199219 265.875 141.449219 C 267.464844 140.699219 269.070312 139.992188 270.699219 139.328125 C 272.328125 138.667969 273.96875 138.050781 275.632812 137.476562 C 277.292969 136.902344 278.96875 136.375 280.65625 135.894531 C 282.347656 135.410156 284.046875 134.976562 285.761719 134.585938 C 287.472656 134.195312 289.195312 133.851562 290.929688 133.554688 C 292.660156 133.261719 294.398438 133.011719 296.144531 132.808594 C 297.890625 132.605469 299.640625 132.453125 301.394531 132.34375 C 303.148438 132.238281 304.902344 132.179688 306.660156 132.167969 C 308.417969 132.15625 310.171875 132.191406 311.925781 132.277344 C 313.683594 132.359375 315.433594 132.488281 317.183594 132.667969 C 318.929688 132.847656 320.671875 133.074219 322.40625 133.347656 C 324.144531 133.621094 325.871094 133.941406 327.589844 134.308594 C 329.304688 134.675781 331.011719 135.085938 332.710938 135.546875 C 334.40625 136.007812 336.085938 136.511719 337.753906 137.0625 C 339.425781 137.613281 341.074219 138.210938 342.710938 138.851562 C 344.347656 139.492188 345.964844 140.175781 347.566406 140.902344 C 349.164062 141.632812 350.742188 142.402344 352.296875 143.21875 C 353.855469 144.03125 355.390625 144.886719 356.898438 145.785156 C 358.410156 146.679688 359.894531 147.617188 361.355469 148.597656 C 362.816406 149.574219 364.246094 150.589844 365.652344 151.648438 C 367.054688 152.703125 368.429688 153.796875 369.777344 154.925781 C 371.121094 156.054688 372.433594 157.222656 373.71875 158.425781 C 375 159.625 376.246094 160.859375 377.460938 162.128906 C 378.675781 163.398438 379.855469 164.703125 381 166.035156 C 382.144531 167.367188 383.253906 168.730469 384.324219 170.125 C 385.394531 171.519531 386.425781 172.941406 387.417969 174.390625 C 388.410156 175.839844 389.363281 177.3125 390.277344 178.816406 C 391.1875 180.316406 392.0625 181.839844 392.890625 183.390625 C 393.722656 184.9375 394.507812 186.507812 395.253906 188.097656 C 396 189.691406 396.699219 191.300781 397.359375 192.929688 C 398.015625 194.558594 398.628906 196.207031 399.195312 197.867188 C 399.765625 199.53125 400.289062 201.207031 400.765625 202.898438 C 401.242188 204.589844 401.671875 206.292969 402.058594 208.007812 C 402.441406 209.722656 402.78125 211.445312 403.070312 213.175781 C 403.363281 214.910156 403.605469 216.648438 403.804688 218.394531 C 404 220.140625 404.148438 221.890625 404.25 223.644531 C 404.351562 225.398438 404.40625 227.15625 404.414062 228.910156 C 404.421875 230.667969 404.378906 232.425781 404.289062 234.179688 C 404.203125 235.933594 404.066406 237.683594 403.882812 239.433594 C 403.699219 241.179688 403.46875 242.921875 403.1875 244.65625 C 402.910156 246.390625 402.585938 248.117188 402.214844 249.835938 C 401.839844 251.550781 401.421875 253.257812 400.957031 254.953125 C 400.492188 256.644531 399.984375 258.328125 399.425781 259.992188 C 398.871094 261.660156 398.269531 263.3125 397.625 264.945312 C 396.980469 266.578125 396.292969 268.195312 395.558594 269.792969 C 394.824219 271.386719 394.050781 272.964844 393.230469 274.519531 C 392.410156 276.074219 391.550781 277.605469 390.648438 279.113281 C 389.746094 280.621094 388.804688 282.101562 387.824219 283.558594 C 386.839844 285.015625 385.820312 286.445312 384.761719 287.847656 C 383.699219 289.25 382.605469 290.621094 381.46875 291.960938 C 380.335938 293.304688 379.164062 294.613281 377.960938 295.890625 C 376.753906 297.171875 375.515625 298.414062 374.242188 299.625 C 372.96875 300.835938 371.664062 302.011719 370.328125 303.152344 C 368.992188 304.292969 367.625 305.398438 366.226562 306.460938 C 364.832031 307.527344 363.40625 308.554688 361.953125 309.546875 C 360.503906 310.535156 359.023438 311.484375 357.519531 312.390625 C 356.015625 313.300781 354.488281 314.167969 352.9375 314.992188 C 351.386719 315.816406 349.816406 316.601562 348.222656 317.339844 C 346.628906 318.082031 345.015625 318.777344 343.382812 319.429688 C 341.753906 320.082031 340.105469 320.691406 338.441406 321.253906 C 336.777344 321.816406 335.097656 322.335938 333.40625 322.808594 C 331.714844 323.28125 330.011719 323.707031 328.292969 324.085938 C 326.578125 324.464844 324.855469 324.800781 323.121094 325.085938 C 321.386719 325.371094 319.648438 325.609375 317.902344 325.800781 C 316.15625 325.992188 314.402344 326.136719 312.648438 326.234375 C 310.894531 326.332031 309.140625 326.378906 307.382812 326.382812 C 303.097656 326.398438 298.832031 326.105469 294.59375 325.5 C 288.703125 333.90625 282.085938 341.699219 274.746094 348.878906 C 267.40625 356.054688 259.464844 362.492188 250.925781 368.195312 C 259.882812 371.871094 269.113281 374.644531 278.609375 376.511719 C 288.109375 378.382812 297.699219 379.316406 307.382812 379.308594 C 309.835938 379.304688 312.289062 379.242188 314.738281 379.117188 C 317.1875 378.992188 319.632812 378.808594 322.074219 378.566406 C 324.515625 378.324219 326.949219 378.019531 329.375 377.65625 C 331.800781 377.292969 334.21875 376.871094 336.625 376.390625 C 339.027344 375.910156 341.421875 375.371094 343.800781 374.773438 C 346.179688 374.171875 348.542969 373.515625 350.890625 372.804688 C 353.238281 372.089844 355.566406 371.316406 357.875 370.488281 C 360.183594 369.660156 362.46875 368.777344 364.734375 367.835938 C 367.003906 366.894531 369.242188 365.898438 371.460938 364.851562 C 373.675781 363.800781 375.867188 362.695312 378.03125 361.539062 C 380.195312 360.378906 382.328125 359.171875 384.429688 357.910156 C 386.535156 356.648438 388.605469 355.332031 390.644531 353.96875 C 392.683594 352.605469 394.6875 351.195312 396.660156 349.730469 C 398.628906 348.269531 400.5625 346.761719 402.457031 345.203125 C 404.355469 343.648438 406.210938 342.042969 408.027344 340.398438 C 409.847656 338.75 411.621094 337.058594 413.355469 335.324219 C 415.09375 333.589844 416.78125 331.8125 418.429688 329.996094 C 420.078125 328.175781 421.679688 326.320312 423.238281 324.425781 C 424.792969 322.527344 426.304688 320.59375 427.765625 318.625 C 429.226562 316.65625 430.640625 314.652344 432.003906 312.613281 C 433.367188 310.570312 434.679688 308.5 435.941406 306.398438 C 437.203125 304.292969 438.414062 302.160156 439.570312 299.996094 C 440.730469 297.835938 441.832031 295.644531 442.882812 293.425781 C 443.933594 291.210938 444.929688 288.96875 445.871094 286.703125 C 446.808594 284.4375 447.695312 282.148438 448.523438 279.839844 C 449.351562 277.53125 450.121094 275.203125 450.835938 272.855469 C 451.550781 270.507812 452.207031 268.144531 452.804688 265.765625 C 453.402344 263.386719 453.945312 260.996094 454.425781 258.589844 C 454.90625 256.183594 455.328125 253.769531 455.691406 251.34375 C 456.054688 248.914062 456.355469 246.480469 456.601562 244.039062 C 456.84375 241.601562 457.027344 239.152344 457.152344 236.703125 C 457.273438 234.253906 457.339844 231.800781 457.339844 229.347656 C 457.355469 221.828125 456.800781 214.351562 455.675781 206.914062 C 454.554688 199.476562 452.875 192.167969 450.636719 184.988281 C 448.398438 177.808594 445.632812 170.839844 442.335938 164.078125 C 439.039062 157.320312 435.25 150.847656 430.964844 144.667969 L 483.804688 91.828125 L 483.804688 114.675781 C 483.804688 115.253906 483.863281 115.828125 483.980469 116.394531 C 484.09375 116.960938 484.261719 117.511719 484.484375 118.046875 C 484.707031 118.582031 484.976562 119.089844 485.300781 119.570312 C 485.621094 120.050781 485.988281 120.496094 486.394531 120.902344 C 486.804688 121.3125 487.25 121.679688 487.730469 122 C 488.210938 122.324219 488.71875 122.59375 489.253906 122.816406 C 489.789062 123.039062 490.339844 123.207031 490.90625 123.320312 C 491.472656 123.4375 492.046875 123.492188 492.625 123.496094 L 527.910156 123.496094 C 528.488281 123.492188 529.0625 123.4375 529.628906 123.320312 C 530.195312 123.207031 530.746094 123.039062 531.28125 122.816406 C 531.816406 122.59375 532.324219 122.324219 532.804688 122 C 533.285156 121.679688 533.730469 121.3125 534.140625 120.902344 C 534.550781 120.496094 534.914062 120.050781 535.238281 119.570312 C 535.558594 119.089844 535.832031 118.582031 536.054688 118.046875 C 536.273438 117.511719 536.445312 116.960938 536.558594 116.394531 C 536.671875 115.828125 536.730469 115.253906 536.730469 114.675781 L 536.730469 8.820312 C 536.730469 8.242188 536.671875 7.667969 536.558594 7.101562 C 536.445312 6.535156 536.273438 5.984375 536.054688 5.449219 C 535.832031 4.914062 535.558594 4.40625 535.238281 3.925781 C 534.914062 3.445312 534.550781 3 534.140625 2.589844 C 533.730469 2.183594 533.285156 1.816406 532.804688 1.496094 C 532.324219 1.171875 531.816406 0.902344 531.28125 0.679688 C 530.746094 0.457031 530.195312 0.289062 529.628906 0.175781 C 529.0625 0.0585938 528.488281 0 527.910156 0 Z M 527.910156 0 " fill-opacity="1" fill-rule="nonzero"/><g clip-path="url(#a2063a6f99)"><path fill="#d1d1d1" d="M 307.382812 229.347656 C 307.390625 222.640625 306.945312 215.960938 306.050781 209.3125 C 305.15625 202.664062 303.816406 196.101562 302.035156 189.636719 C 300.253906 183.167969 298.046875 176.847656 295.414062 170.675781 C 292.777344 164.507812 289.742188 158.542969 286.300781 152.78125 C 281.945312 153.96875 277.726562 155.519531 273.640625 157.433594 C 269.554688 159.347656 265.660156 161.597656 261.960938 164.183594 C 258.265625 166.765625 254.816406 169.652344 251.613281 172.832031 C 248.414062 176.011719 245.507812 179.445312 242.898438 183.125 C 246.695312 190.238281 249.570312 197.703125 251.527344 205.527344 C 253.480469 213.347656 254.457031 221.289062 254.457031 229.347656 C 254.457031 230.9375 254.417969 232.523438 254.339844 234.109375 C 254.261719 235.695312 254.144531 237.28125 253.988281 238.859375 C 253.832031 240.441406 253.636719 242.015625 253.40625 243.585938 C 253.171875 245.15625 252.902344 246.722656 252.589844 248.277344 C 252.28125 249.835938 251.933594 251.386719 251.546875 252.925781 C 251.160156 254.464844 250.738281 255.996094 250.277344 257.515625 C 249.816406 259.035156 249.320312 260.542969 248.785156 262.039062 C 248.25 263.535156 247.675781 265.015625 247.070312 266.480469 C 246.460938 267.949219 245.820312 269.398438 245.140625 270.835938 C 244.460938 272.269531 243.746094 273.6875 243 275.089844 C 242.25 276.488281 241.46875 277.871094 240.652344 279.234375 C 239.835938 280.59375 238.984375 281.9375 238.101562 283.257812 C 237.21875 284.578125 236.304688 285.875 235.359375 287.152344 C 234.414062 288.425781 233.4375 289.679688 232.429688 290.90625 C 231.421875 292.132812 230.386719 293.335938 229.320312 294.511719 C 228.253906 295.6875 227.160156 296.839844 226.035156 297.960938 C 224.914062 299.085938 223.761719 300.179688 222.585938 301.246094 C 221.410156 302.3125 220.207031 303.347656 218.980469 304.355469 C 217.753906 305.363281 216.5 306.339844 215.226562 307.285156 C 213.949219 308.230469 212.652344 309.144531 211.332031 310.027344 C 210.011719 310.910156 208.671875 311.761719 207.308594 312.578125 C 205.945312 313.394531 204.566406 314.175781 203.164062 314.921875 C 201.765625 315.671875 200.34375 316.386719 198.910156 317.066406 C 197.472656 317.742188 196.023438 318.386719 194.554688 318.996094 C 193.089844 319.601562 191.609375 320.175781 190.113281 320.710938 C 188.617188 321.242188 187.109375 321.742188 185.589844 322.203125 C 184.070312 322.664062 182.539062 323.085938 181 323.472656 C 179.460938 323.859375 177.910156 324.207031 176.355469 324.515625 C 174.796875 324.828125 173.230469 325.097656 171.660156 325.332031 C 170.089844 325.5625 168.515625 325.757812 166.933594 325.914062 C 165.355469 326.070312 163.769531 326.1875 162.183594 326.265625 C 160.597656 326.34375 159.011719 326.382812 157.421875 326.382812 C 155.835938 326.382812 154.25 326.34375 152.664062 326.265625 C 151.078125 326.1875 149.492188 326.070312 147.914062 325.914062 C 146.332031 325.757812 144.757812 325.5625 143.1875 325.332031 C 141.613281 325.097656 140.050781 324.828125 138.492188 324.515625 C 136.9375 324.207031 135.386719 323.859375 133.847656 323.472656 C 132.304688 323.085938 130.777344 322.664062 129.257812 322.203125 C 127.738281 321.742188 126.230469 321.242188 124.734375 320.710938 C 123.238281 320.175781 121.757812 319.601562 120.289062 318.996094 C 118.824219 318.386719 117.371094 317.742188 115.9375 317.066406 C 114.5 316.386719 113.082031 315.671875 111.683594 314.921875 C 110.28125 314.175781 108.902344 313.394531 107.539062 312.578125 C 106.175781 311.761719 104.835938 310.910156 103.515625 310.027344 C 102.195312 309.144531 100.898438 308.230469 99.621094 307.285156 C 98.347656 306.339844 97.09375 305.363281 95.867188 304.355469 C 94.640625 303.347656 93.4375 302.3125 92.261719 301.246094 C 91.082031 300.179688 89.933594 299.085938 88.8125 297.960938 C 87.6875 296.839844 86.59375 295.6875 85.527344 294.511719 C 84.460938 293.335938 83.425781 292.132812 82.417969 290.90625 C 81.410156 289.679688 80.433594 288.425781 79.488281 287.152344 C 78.539062 285.875 77.625 284.578125 76.742188 283.257812 C 75.863281 281.9375 75.011719 280.59375 74.195312 279.234375 C 73.378906 277.871094 72.597656 276.488281 71.847656 275.089844 C 71.101562 273.6875 70.386719 272.269531 69.707031 270.835938 C 69.027344 269.398438 68.386719 267.949219 67.777344 266.480469 C 67.167969 265.015625 66.597656 263.535156 66.0625 262.039062 C 65.527344 260.542969 65.03125 259.035156 64.570312 257.515625 C 64.109375 255.996094 63.683594 254.464844 63.300781 252.925781 C 62.914062 251.386719 62.566406 249.835938 62.253906 248.277344 C 61.945312 246.722656 61.675781 245.15625 61.441406 243.585938 C 61.207031 242.015625 61.015625 240.441406 60.859375 238.859375 C 60.703125 237.28125 60.585938 235.695312 60.507812 234.109375 C 60.429688 232.523438 60.390625 230.9375 60.390625 229.347656 C 60.390625 227.761719 60.429688 226.175781 60.507812 224.585938 C 60.585938 223 60.703125 221.417969 60.859375 219.839844 C 61.015625 218.257812 61.207031 216.683594 61.441406 215.113281 C 61.675781 213.539062 61.945312 211.976562 62.253906 210.417969 C 62.566406 208.863281 62.914062 207.3125 63.300781 205.773438 C 63.683594 204.230469 64.109375 202.703125 64.570312 201.183594 C 65.03125 199.664062 65.527344 198.15625 66.0625 196.660156 C 66.597656 195.164062 67.167969 193.683594 67.777344 192.214844 C 68.386719 190.75 69.027344 189.296875 69.707031 187.863281 C 70.386719 186.425781 71.101562 185.007812 71.847656 183.609375 C 72.597656 182.207031 73.378906 180.828125 74.195312 179.464844 C 75.011719 178.101562 75.863281 176.761719 76.742188 175.441406 C 77.625 174.121094 78.539062 172.824219 79.488281 171.546875 C 80.433594 170.269531 81.410156 169.019531 82.417969 167.792969 C 83.425781 166.566406 84.460938 165.363281 85.527344 164.1875 C 86.59375 163.007812 87.6875 161.859375 88.8125 160.738281 C 89.933594 159.613281 91.082031 158.519531 92.261719 157.453125 C 93.4375 156.386719 94.640625 155.347656 95.867188 154.34375 C 97.09375 153.335938 98.347656 152.359375 99.621094 151.410156 C 100.898438 150.464844 102.195312 149.550781 103.515625 148.667969 C 104.835938 147.789062 106.175781 146.9375 107.539062 146.121094 C 108.902344 145.304688 110.28125 144.523438 111.683594 143.773438 C 113.082031 143.027344 114.5 142.3125 115.9375 141.632812 C 117.371094 140.953125 118.824219 140.3125 120.289062 139.703125 C 121.757812 139.09375 123.238281 138.523438 124.734375 137.988281 C 126.230469 137.453125 127.738281 136.957031 129.257812 136.496094 C 130.777344 136.035156 132.304688 135.609375 133.847656 135.226562 C 135.386719 134.839844 136.9375 134.492188 138.492188 134.179688 C 140.050781 133.871094 141.613281 133.601562 143.1875 133.367188 C 144.757812 133.132812 146.332031 132.941406 147.914062 132.785156 C 149.492188 132.628906 151.078125 132.511719 152.664062 132.433594 C 154.25 132.355469 155.835938 132.316406 157.421875 132.316406 C 161.675781 132.316406 165.910156 132.578125 170.125 133.109375 C 176.011719 124.710938 182.613281 116.925781 189.941406 109.75 C 197.265625 102.570312 205.183594 96.128906 213.703125 90.417969 C 204.777344 86.746094 195.578125 83.984375 186.105469 82.128906 C 176.636719 80.273438 167.074219 79.359375 157.421875 79.390625 C 155.109375 79.390625 152.792969 79.441406 150.480469 79.546875 C 148.167969 79.652344 145.859375 79.8125 143.554688 80.027344 C 141.25 80.238281 138.949219 80.507812 136.65625 80.828125 C 134.363281 81.144531 132.078125 81.519531 129.804688 81.945312 C 127.527344 82.371094 125.261719 82.847656 123.007812 83.378906 C 120.757812 83.910156 118.515625 84.492188 116.289062 85.125 C 114.0625 85.761719 111.851562 86.445312 109.65625 87.183594 C 107.460938 87.917969 105.285156 88.707031 103.128906 89.542969 C 100.96875 90.382812 98.832031 91.269531 96.714844 92.207031 C 94.597656 93.140625 92.503906 94.128906 90.429688 95.160156 C 88.359375 96.195312 86.3125 97.277344 84.292969 98.40625 C 82.269531 99.535156 80.273438 100.707031 78.308594 101.929688 C 76.339844 103.148438 74.402344 104.414062 72.496094 105.726562 C 70.585938 107.039062 68.710938 108.390625 66.863281 109.789062 C 65.019531 111.1875 63.207031 112.625 61.425781 114.109375 C 59.648438 115.589844 57.902344 117.113281 56.195312 118.675781 C 54.488281 120.238281 52.816406 121.839844 51.183594 123.476562 C 49.546875 125.117188 47.953125 126.796875 46.394531 128.507812 C 44.839844 130.222656 43.324219 131.972656 41.847656 133.757812 C 40.371094 135.539062 38.9375 137.359375 37.546875 139.207031 C 36.15625 141.058594 34.808594 142.941406 33.503906 144.851562 C 32.199219 146.765625 30.941406 148.707031 29.726562 150.679688 C 28.511719 152.652344 27.34375 154.648438 26.222656 156.675781 C 25.101562 158.699219 24.027344 160.75 23 162.824219 C 21.976562 164.902344 20.996094 167 20.066406 169.121094 C 19.140625 171.238281 18.257812 173.382812 17.429688 175.542969 C 16.597656 177.703125 15.820312 179.882812 15.089844 182.082031 C 14.359375 184.277344 13.683594 186.492188 13.058594 188.71875 C 12.429688 190.949219 11.855469 193.191406 11.332031 195.445312 C 10.808594 197.703125 10.339844 199.96875 9.921875 202.246094 C 9.503906 204.523438 9.140625 206.808594 8.828125 209.101562 C 8.515625 211.394531 8.257812 213.695312 8.054688 216.003906 C 7.847656 218.308594 7.695312 220.617188 7.597656 222.929688 C 7.5 225.242188 7.457031 227.558594 7.464844 229.875 C 7.472656 232.1875 7.535156 234.503906 7.652344 236.816406 C 7.769531 239.125 7.9375 241.433594 8.160156 243.738281 C 8.386719 246.042969 8.660156 248.34375 8.992188 250.632812 C 9.320312 252.925781 9.703125 255.207031 10.140625 257.480469 C 10.574219 259.753906 11.0625 262.019531 11.601562 264.269531 C 12.144531 266.519531 12.734375 268.757812 13.378906 270.980469 C 14.023438 273.207031 14.71875 275.414062 15.464844 277.605469 C 16.210938 279.796875 17.007812 281.96875 17.855469 284.125 C 18.703125 286.28125 19.597656 288.414062 20.542969 290.527344 C 21.488281 292.640625 22.484375 294.730469 23.527344 296.796875 C 24.570312 298.863281 25.660156 300.90625 26.796875 302.921875 C 27.933594 304.9375 29.117188 306.929688 30.347656 308.890625 C 31.578125 310.851562 32.851562 312.785156 34.171875 314.6875 C 35.488281 316.589844 36.851562 318.460938 38.257812 320.300781 C 39.664062 322.140625 41.109375 323.945312 42.601562 325.71875 C 44.089844 327.492188 45.621094 329.226562 47.191406 330.929688 C 48.757812 332.628906 50.367188 334.296875 52.015625 335.921875 C 53.660156 337.550781 55.347656 339.136719 57.066406 340.6875 C 58.785156 342.234375 60.542969 343.742188 62.332031 345.210938 C 64.125 346.679688 65.945312 348.105469 67.804688 349.488281 C 69.660156 350.871094 71.546875 352.210938 73.464844 353.507812 C 75.386719 354.800781 77.332031 356.050781 79.308594 357.257812 C 81.285156 358.464844 83.289062 359.621094 85.320312 360.734375 C 87.351562 361.847656 89.40625 362.914062 91.484375 363.929688 C 93.5625 364.949219 95.667969 365.917969 97.789062 366.835938 C 99.914062 367.757812 102.058594 368.628906 104.226562 369.449219 C 106.390625 370.269531 108.574219 371.039062 110.773438 371.757812 C 112.972656 372.476562 115.191406 373.144531 117.421875 373.761719 C 119.652344 374.378906 121.898438 374.945312 124.15625 375.457031 C 126.414062 375.96875 128.679688 376.429688 130.960938 376.839844 L 130.960938 432.234375 L 113.316406 432.234375 C 112.738281 432.238281 112.167969 432.292969 111.597656 432.410156 C 111.03125 432.523438 110.480469 432.691406 109.945312 432.914062 C 109.410156 433.136719 108.90625 433.40625 108.421875 433.730469 C 107.941406 434.050781 107.496094 434.417969 107.089844 434.824219 C 106.679688 435.234375 106.3125 435.679688 105.992188 436.160156 C 105.667969 436.640625 105.398438 437.148438 105.175781 437.683594 C 104.953125 438.21875 104.785156 438.769531 104.671875 439.335938 C 104.554688 439.902344 104.5 440.476562 104.496094 441.054688 L 104.496094 476.339844 C 104.5 476.917969 104.554688 477.492188 104.671875 478.058594 C 104.785156 478.625 104.953125 479.175781 105.175781 479.710938 C 105.398438 480.246094 105.667969 480.753906 105.992188 481.234375 C 106.3125 481.714844 106.679688 482.160156 107.089844 482.570312 C 107.496094 482.980469 107.941406 483.34375 108.421875 483.667969 C 108.90625 483.988281 109.410156 484.261719 109.945312 484.484375 C 110.480469 484.707031 111.03125 484.875 111.597656 484.988281 C 112.167969 485.101562 112.738281 485.160156 113.316406 485.160156 L 130.960938 485.160156 L 130.960938 520.445312 C 130.960938 521.023438 131.019531 521.597656 131.132812 522.164062 C 131.25 522.730469 131.417969 523.28125 131.640625 523.816406 C 131.859375 524.351562 132.132812 524.859375 132.453125 525.339844 C 132.777344 525.820312 133.140625 526.265625 133.550781 526.675781 C 133.960938 527.085938 134.40625 527.449219 134.886719 527.773438 C 135.367188 528.09375 135.875 528.367188 136.410156 528.589844 C 136.945312 528.8125 137.496094 528.980469 138.0625 529.09375 C 138.628906 529.207031 139.203125 529.265625 139.78125 529.265625 L 175.066406 529.265625 C 175.644531 529.265625 176.21875 529.207031 176.785156 529.09375 C 177.351562 528.980469 177.902344 528.8125 178.4375 528.589844 C 178.972656 528.367188 179.480469 528.09375 179.960938 527.773438 C 180.441406 527.449219 180.886719 527.085938 181.296875 526.675781 C 181.703125 526.265625 182.070312 525.820312 182.390625 525.339844 C 182.714844 524.859375 182.984375 524.351562 183.207031 523.816406 C 183.429688 523.28125 183.597656 522.730469 183.714844 522.164062 C 183.828125 521.597656 183.886719 521.023438 183.886719 520.445312 L 183.886719 485.160156 L 201.527344 485.160156 C 202.109375 485.160156 202.679688 485.101562 203.25 484.988281 C 203.816406 484.875 204.367188 484.707031 204.902344 484.484375 C 205.433594 484.261719 205.941406 483.988281 206.421875 483.667969 C 206.90625 483.34375 207.351562 482.980469 207.757812 482.570312 C 208.167969 482.160156 208.535156 481.714844 208.855469 481.234375 C 209.175781 480.753906 209.449219 480.246094 209.671875 479.710938 C 209.894531 479.175781 210.0625 478.625 210.175781 478.058594 C 210.289062 477.492188 210.347656 476.917969 210.351562 476.339844 L 210.351562 441.054688 C 210.347656 440.476562 210.289062 439.902344 210.175781 439.335938 C 210.0625 438.769531 209.894531 438.21875 209.671875 437.683594 C 209.449219 437.148438 209.175781 436.640625 208.855469 436.160156 C 208.535156 435.679688 208.167969 435.234375 207.757812 434.824219 C 207.351562 434.417969 206.90625 434.050781 206.421875 433.730469 C 205.941406 433.40625 205.433594 433.136719 204.902344 432.914062 C 204.367188 432.691406 203.816406 432.523438 203.25 432.410156 C 202.679688 432.292969 202.109375 432.238281 201.527344 432.234375 L 183.886719 432.234375 L 183.886719 376.839844 C 186.027344 376.453125 188.160156 376.023438 190.28125 375.546875 C 192.40625 375.070312 194.515625 374.546875 196.617188 373.976562 C 198.71875 373.410156 200.804688 372.792969 202.878906 372.136719 C 204.949219 371.476562 207.007812 370.769531 209.050781 370.023438 C 211.09375 369.273438 213.117188 368.480469 215.125 367.640625 C 217.136719 366.804688 219.125 365.925781 221.09375 365 C 223.0625 364.074219 225.011719 363.109375 226.941406 362.101562 C 228.867188 361.09375 230.773438 360.042969 232.65625 358.949219 C 234.535156 357.859375 236.394531 356.726562 238.226562 355.554688 C 240.058594 354.382812 241.867188 353.171875 243.644531 351.917969 C 245.425781 350.667969 247.175781 349.378906 248.902344 348.050781 C 250.625 346.722656 252.320312 345.359375 253.984375 343.960938 C 255.648438 342.558594 257.28125 341.121094 258.882812 339.648438 C 260.484375 338.175781 262.054688 336.671875 263.589844 335.128906 C 265.128906 333.589844 266.628906 332.015625 268.097656 330.410156 C 269.566406 328.804688 271 327.167969 272.394531 325.5 C 273.792969 323.832031 275.152344 322.132812 276.472656 320.40625 C 277.796875 318.679688 279.082031 316.925781 280.328125 315.140625 C 281.574219 313.359375 282.78125 311.550781 283.949219 309.714844 C 285.117188 307.878906 286.246094 306.015625 287.332031 304.132812 C 288.417969 302.246094 289.464844 300.339844 290.46875 298.410156 C 291.472656 296.480469 292.433594 294.527344 293.351562 292.554688 C 294.269531 290.585938 295.144531 288.59375 295.976562 286.582031 C 296.808594 284.574219 297.597656 282.546875 298.34375 280.5 C 299.085938 278.457031 299.785156 276.398438 300.4375 274.320312 C 301.09375 272.246094 301.703125 270.160156 302.265625 268.058594 C 302.828125 265.957031 303.347656 263.84375 303.820312 261.71875 C 304.289062 259.59375 304.714844 257.460938 305.09375 255.320312 C 305.472656 253.175781 305.804688 251.027344 306.089844 248.871094 C 306.375 246.714844 306.613281 244.550781 306.804688 242.382812 C 306.996094 240.214844 307.136719 238.046875 307.234375 235.871094 C 307.332031 233.699219 307.378906 231.523438 307.382812 229.347656 Z M 307.382812 229.347656 " fill-opacity="1" fill-rule="nonzero"/></g><path fill="#d1d1d1" d="M 527.910156 0 L 422.058594 0 C 421.476562 0 420.90625 0.0585938 420.335938 0.175781 C 419.769531 0.289062 419.21875 0.457031 418.683594 0.679688 C 418.152344 0.902344 417.644531 1.171875 417.164062 1.496094 C 416.679688 1.816406 416.238281 2.183594 415.828125 2.589844 C 415.417969 3 415.050781 3.445312 414.730469 3.925781 C 414.410156 4.40625 414.136719 4.914062 413.914062 5.449219 C 413.691406 5.984375 413.523438 6.535156 413.410156 7.101562 C 413.296875 7.667969 413.238281 8.242188 413.234375 8.820312 L 413.234375 44.105469 C 413.238281 44.683594 413.296875 45.257812 413.410156 45.824219 C 413.523438 46.390625 413.691406 46.941406 413.914062 47.476562 C 414.136719 48.011719 414.410156 48.519531 414.730469 49 C 415.050781 49.480469 415.417969 49.925781 415.828125 50.335938 C 416.238281 50.746094 416.679688 51.109375 417.164062 51.433594 C 417.644531 51.753906 418.152344 52.027344 418.683594 52.25 C 419.21875 52.46875 419.769531 52.636719 420.335938 52.753906 C 420.90625 52.867188 421.476562 52.925781 422.058594 52.925781 L 444.902344 52.925781 L 392.066406 105.765625 C 385.882812 101.484375 379.410156 97.691406 372.652344 94.394531 C 365.894531 91.097656 358.921875 88.332031 351.742188 86.09375 C 344.5625 83.859375 337.253906 82.179688 329.816406 81.054688 C 322.382812 79.929688 314.902344 79.375 307.382812 79.390625 C 304.089844 79.386719 300.800781 79.496094 297.515625 79.710938 C 294.230469 79.925781 290.957031 80.246094 287.691406 80.679688 C 284.425781 81.109375 281.179688 81.648438 277.953125 82.292969 C 274.722656 82.9375 271.519531 83.6875 268.339844 84.542969 C 265.160156 85.398438 262.011719 86.359375 258.894531 87.421875 C 255.78125 88.484375 252.703125 89.648438 249.664062 90.914062 C 246.625 92.183594 243.628906 93.546875 240.679688 95.011719 C 237.730469 96.472656 234.832031 98.03125 231.984375 99.6875 C 229.140625 101.34375 226.351562 103.089844 223.617188 104.925781 C 220.886719 106.765625 218.21875 108.691406 215.613281 110.707031 C 213.011719 112.71875 210.476562 114.816406 208.007812 117 C 205.542969 119.179688 203.148438 121.441406 200.832031 123.777344 C 198.515625 126.117188 196.277344 128.53125 194.121094 131.015625 C 191.960938 133.503906 189.886719 136.058594 187.898438 138.679688 C 185.90625 141.304688 184.003906 143.988281 182.191406 146.738281 C 180.378906 149.484375 178.660156 152.292969 177.03125 155.152344 C 175.402344 158.015625 173.871094 160.925781 172.433594 163.890625 C 170.996094 166.851562 169.660156 169.859375 168.421875 172.910156 C 167.183594 175.960938 166.046875 179.050781 165.015625 182.175781 C 163.980469 185.300781 163.046875 188.457031 162.222656 191.644531 C 161.394531 194.832031 160.675781 198.042969 160.058594 201.277344 C 159.445312 204.511719 158.9375 207.761719 158.535156 211.03125 C 158.136719 214.300781 157.84375 217.578125 157.660156 220.863281 C 157.472656 224.152344 157.398438 227.441406 157.429688 230.734375 C 157.460938 234.027344 157.601562 237.3125 157.851562 240.597656 C 158.101562 243.878906 158.457031 247.152344 158.921875 250.410156 C 159.386719 253.671875 159.957031 256.910156 160.636719 260.132812 C 161.3125 263.355469 162.097656 266.550781 162.984375 269.722656 C 163.875 272.890625 164.867188 276.03125 165.960938 279.132812 C 167.058594 282.238281 168.253906 285.304688 169.550781 288.332031 C 170.851562 291.355469 172.246094 294.335938 173.738281 297.269531 C 175.234375 300.207031 176.820312 303.085938 178.507812 305.917969 C 182.855469 304.722656 187.074219 303.167969 191.164062 301.257812 C 195.25 299.34375 199.144531 297.097656 202.847656 294.523438 C 206.550781 291.945312 210.011719 289.074219 213.226562 285.90625 C 216.4375 282.742188 219.363281 279.324219 221.992188 275.660156 C 221.15625 274.117188 220.359375 272.550781 219.605469 270.964844 C 218.847656 269.378906 218.136719 267.769531 217.472656 266.144531 C 216.804688 264.519531 216.183594 262.878906 215.605469 261.21875 C 215.027344 259.558594 214.492188 257.886719 214.007812 256.199219 C 213.519531 254.507812 213.078125 252.808594 212.683594 251.097656 C 212.289062 249.386719 211.941406 247.664062 211.636719 245.933594 C 211.335938 244.203125 211.082031 242.464844 210.875 240.71875 C 210.667969 238.972656 210.507812 237.226562 210.398438 235.472656 C 210.285156 233.71875 210.21875 231.964844 210.203125 230.207031 C 210.1875 228.449219 210.21875 226.695312 210.296875 224.9375 C 210.375 223.183594 210.5 221.429688 210.671875 219.683594 C 210.847656 217.933594 211.066406 216.191406 211.335938 214.457031 C 211.605469 212.71875 211.917969 210.992188 212.28125 209.273438 C 212.644531 207.550781 213.050781 205.84375 213.503906 204.148438 C 213.960938 202.449219 214.460938 200.765625 215.007812 199.097656 C 215.550781 197.425781 216.144531 195.773438 216.78125 194.132812 C 217.414062 192.496094 218.09375 190.875 218.820312 189.277344 C 219.542969 187.675781 220.308594 186.09375 221.117188 184.535156 C 221.929688 182.976562 222.777344 181.4375 223.671875 179.925781 C 224.566406 178.414062 225.496094 176.925781 226.472656 175.460938 C 227.445312 174 228.457031 172.566406 229.507812 171.15625 C 230.5625 169.75 231.648438 168.371094 232.777344 167.023438 C 233.902344 165.675781 235.066406 164.355469 236.261719 163.070312 C 237.460938 161.785156 238.691406 160.535156 239.957031 159.316406 C 241.222656 158.097656 242.519531 156.914062 243.851562 155.765625 C 245.179688 154.617188 246.542969 153.507812 247.933594 152.433594 C 249.320312 151.359375 250.742188 150.320312 252.1875 149.324219 C 253.632812 148.328125 255.105469 147.371094 256.605469 146.453125 C 258.101562 145.535156 259.625 144.660156 261.171875 143.824219 C 262.71875 142.988281 264.285156 142.199219 265.875 141.449219 C 267.464844 140.699219 269.070312 139.992188 270.699219 139.328125 C 272.328125 138.667969 273.96875 138.050781 275.632812 137.476562 C 277.292969 136.902344 278.96875 136.375 280.65625 135.894531 C 282.347656 135.410156 284.046875 134.976562 285.761719 134.585938 C 287.472656 134.195312 289.195312 133.851562 290.929688 133.554688 C 292.660156 133.261719 294.398438 133.011719 296.144531 132.808594 C 297.890625 132.605469 299.640625 132.453125 301.394531 132.34375 C 303.148438 132.238281 304.902344 132.179688 306.660156 132.167969 C 308.417969 132.15625 310.171875 132.191406 311.925781 132.277344 C 313.683594 132.359375 315.433594 132.488281 317.183594 132.667969 C 318.929688 132.847656 320.671875 133.074219 322.40625 133.347656 C 324.144531 133.621094 325.871094 133.941406 327.589844 134.308594 C 329.304688 134.675781 331.011719 135.085938 332.710938 135.546875 C 334.40625 136.007812 336.085938 136.511719 337.753906 137.0625 C 339.425781 137.613281 341.074219 138.210938 342.710938 138.851562 C 344.347656 139.492188 345.964844 140.175781 347.566406 140.902344 C 349.164062 141.632812 350.742188 142.402344 352.296875 143.21875 C 353.855469 144.03125 355.390625 144.886719 356.898438 145.785156 C 358.410156 146.679688 359.894531 147.617188 361.355469 148.597656 C 362.816406 149.574219 364.246094 150.589844 365.652344 151.648438 C 367.054688 152.703125 368.429688 153.796875 369.777344 154.925781 C 371.121094 156.054688 372.433594 157.222656 373.71875 158.425781 C 375 159.625 376.246094 160.859375 377.460938 162.128906 C 378.675781 163.398438 379.855469 164.703125 381 166.035156 C 382.144531 167.367188 383.253906 168.730469 384.324219 170.125 C 385.394531 171.519531 386.425781 172.941406 387.417969 174.390625 C 388.410156 175.839844 389.363281 177.3125 390.277344 178.816406 C 391.1875 180.316406 392.0625 181.839844 392.890625 183.390625 C 393.722656 184.9375 394.507812 186.507812 395.253906 188.097656 C 396 189.691406 396.699219 191.300781 397.359375 192.929688 C 398.015625 194.558594 398.628906 196.207031 399.195312 197.867188 C 399.765625 199.53125 400.289062 201.207031 400.765625 202.898438 C 401.242188 204.589844 401.671875 206.292969 402.058594 208.007812 C 402.441406 209.722656 402.78125 211.445312 403.070312 213.175781 C 403.363281 214.910156 403.605469 216.648438 403.804688 218.394531 C 404 220.140625 404.148438 221.890625 404.25 223.644531 C 404.351562 225.398438 404.40625 227.15625 404.414062 228.910156 C 404.421875 230.667969 404.378906 232.425781 404.289062 234.179688 C 404.203125 235.933594 404.066406 237.683594 403.882812 239.433594 C 403.699219 241.179688 403.46875 242.921875 403.1875 244.65625 C 402.910156 246.390625 402.585938 248.117188 402.214844 249.835938 C 401.839844 251.550781 401.421875 253.257812 400.957031 254.953125 C 400.492188 256.644531 399.984375 258.328125 399.425781 259.992188 C 398.871094 261.660156 398.269531 263.3125 397.625 264.945312 C 396.980469 266.578125 396.292969 268.195312 395.558594 269.792969 C 394.824219 271.386719 394.050781 272.964844 393.230469 274.519531 C 392.410156 276.074219 391.550781 277.605469 390.648438 279.113281 C 389.746094 280.621094 388.804688 282.101562 387.824219 283.558594 C 386.839844 285.015625 385.820312 286.445312 384.761719 287.847656 C 383.699219 289.25 382.605469 290.621094 381.46875 291.960938 C 380.335938 293.304688 379.164062 294.613281 377.960938 295.890625 C 376.753906 297.171875 375.515625 298.414062 374.242188 299.625 C 372.96875 300.835938 371.664062 302.011719 370.328125 303.152344 C 368.992188 304.292969 367.625 305.398438 366.226562 306.460938 C 364.832031 307.527344 363.40625 308.554688 361.953125 309.546875 C 360.503906 310.535156 359.023438 311.484375 357.519531 312.390625 C 356.015625 313.300781 354.488281 314.167969 352.9375 314.992188 C 351.386719 315.816406 349.816406 316.601562 348.222656 317.339844 C 346.628906 318.082031 345.015625 318.777344 343.382812 319.429688 C 341.753906 320.082031 340.105469 320.691406 338.441406 321.253906 C 336.777344 321.816406 335.097656 322.335938 333.40625 322.808594 C 331.714844 323.28125 330.011719 323.707031 328.292969 324.085938 C 326.578125 324.464844 324.855469 324.800781 323.121094 325.085938 C 321.386719 325.371094 319.648438 325.609375 317.902344 325.800781 C 316.15625 325.992188 314.402344 326.136719 312.648438 326.234375 C 310.894531 326.332031 309.140625 326.378906 307.382812 326.382812 C 303.097656 326.398438 298.832031 326.105469 294.59375 325.5 C 288.703125 333.90625 282.085938 341.699219 274.746094 348.878906 C 267.40625 356.054688 259.464844 362.492188 250.925781 368.195312 C 259.882812 371.871094 269.113281 374.644531 278.609375 376.511719 C 288.109375 378.382812 297.699219 379.316406 307.382812 379.308594 C 309.835938 379.304688 312.289062 379.242188 314.738281 379.117188 C 317.1875 378.992188 319.632812 378.808594 322.074219 378.566406 C 324.515625 378.324219 326.949219 378.019531 329.375 377.65625 C 331.800781 377.292969 334.21875 376.871094 336.625 376.390625 C 339.027344 375.910156 341.421875 375.371094 343.800781 374.773438 C 346.179688 374.171875 348.542969 373.515625 350.890625 372.804688 C 353.238281 372.089844 355.566406 371.316406 357.875 370.488281 C 360.183594 369.660156 362.46875 368.777344 364.734375 367.835938 C 367.003906 366.894531 369.242188 365.898438 371.460938 364.851562 C 373.675781 363.800781 375.867188 362.695312 378.03125 361.539062 C 380.195312 360.378906 382.328125 359.171875 384.429688 357.910156 C 386.535156 356.648438 388.605469 355.332031 390.644531 353.96875 C 392.683594 352.605469 394.6875 351.195312 396.660156 349.730469 C 398.628906 348.269531 400.5625 346.761719 402.457031 345.203125 C 404.355469 343.648438 406.210938 342.042969 408.027344 340.398438 C 409.847656 338.75 411.621094 337.058594 413.355469 335.324219 C 415.09375 333.589844 416.78125 331.8125 418.429688 329.996094 C 420.078125 328.175781 421.679688 326.320312 423.238281 324.425781 C 424.792969 322.527344 426.304688 320.59375 427.765625 318.625 C 429.226562 316.65625 430.640625 314.652344 432.003906 312.613281 C 433.367188 310.570312 434.679688 308.5 435.941406 306.398438 C 437.203125 304.292969 438.414062 302.160156 439.570312 299.996094 C 440.730469 297.835938 441.832031 295.644531 442.882812 293.425781 C 443.933594 291.210938 444.929688 288.96875 445.871094 286.703125 C 446.808594 284.4375 447.695312 282.148438 448.523438 279.839844 C 449.351562 277.53125 450.121094 275.203125 450.835938 272.855469 C 451.550781 270.507812 452.207031 268.144531 452.804688 265.765625 C 453.402344 263.386719 453.945312 260.996094 454.425781 258.589844 C 454.90625 256.183594 455.328125 253.769531 455.691406 251.34375 C 456.054688 248.914062 456.355469 246.480469 456.601562 244.039062 C 456.84375 241.601562 457.027344 239.152344 457.152344 236.703125 C 457.273438 234.253906 457.339844 231.800781 457.339844 229.347656 C 457.355469 221.828125 456.800781 214.351562 455.675781 206.914062 C 454.554688 199.476562 452.875 192.167969 450.636719 184.988281 C 448.398438 177.808594 445.632812 170.839844 442.335938 164.078125 C 439.039062 157.320312 435.25 150.847656 430.964844 144.667969 L 483.804688 91.828125 L 483.804688 114.675781 C 483.804688 115.253906 483.863281 115.828125 483.980469 116.394531 C 484.09375 116.960938 484.261719 117.511719 484.484375 118.046875 C 484.707031 118.582031 484.976562 119.089844 485.300781 119.570312 C 485.621094 120.050781 485.988281 120.496094 486.394531 120.902344 C 486.804688 121.3125 487.25 121.679688 487.730469 122 C 488.210938 122.324219 488.71875 122.59375 489.253906 122.816406 C 489.789062 123.039062 490.339844 123.207031 490.90625 123.320312 C 491.472656 123.4375 492.046875 123.492188 492.625 123.496094 L 527.910156 123.496094 C 528.488281 123.492188 529.0625 123.4375 529.628906 123.320312 C 530.195312 123.207031 530.746094 123.039062 531.28125 122.816406 C 531.816406 122.59375 532.324219 122.324219 532.804688 122 C 533.285156 121.679688 533.730469 121.3125 534.140625 120.902344 C 534.550781 120.496094 534.914062 120.050781 535.238281 119.570312 C 535.558594 119.089844 535.832031 118.582031 536.054688 118.046875 C 536.273438 117.511719 536.445312 116.960938 536.558594 116.394531 C 536.671875 115.828125 536.730469 115.253906 536.730469 114.675781 L 536.730469 8.820312 C 536.730469 8.242188 536.671875 7.667969 536.558594 7.101562 C 536.445312 6.535156 536.273438 5.984375 536.054688 5.449219 C 535.832031 4.914062 535.558594 4.40625 535.238281 3.925781 C 534.914062 3.445312 534.550781 3 534.140625 2.589844 C 533.730469 2.183594 533.285156 1.816406 532.804688 1.496094 C 532.324219 1.171875 531.816406 0.902344 531.28125 0.679688 C 530.746094 0.457031 530.195312 0.289062 529.628906 0.175781 C 529.0625 0.0585938 528.488281 0 527.910156 0 Z M 527.910156 0 " fill-opacity="1" fill-rule="nonzero"/></svg>