<svg xmlns="http://www.w3.org/2000/svg" xmlns:xlink="http://www.w3.org/1999/xlink" version="1.1" x="0px" y="0px" viewBox="0 0 73 91.25" enable-background="new 0 0 73 73" xml:space="preserve"><path d="M70.5,0.5H60.3c-1.1,0-2,0.9-2,2s0.9,2,2,2h5.3L56.2,14c-3.5-2.9-7.9-4.6-12.8-4.6c-5.1,0-9.7,1.9-13.2,5  c-2.8-1.5-6-2.4-9.5-2.4C9.6,12,0.5,21,0.5,32.2c0,10.5,8,19.1,18.2,20.1v8.9h-4.4c-1.1,0-2,0.9-2,2c0,1.1,0.9,2,2,2h4.4v5.3  c0,1.1,0.9,2,2,2s2-0.9,2-2v-5.3h4.4c1.1,0,2-0.9,2-2c0-1.1-0.9-2-2-2h-4.4v-8.9c4.3-0.4,8.1-2.2,11.2-4.9c2.8,1.5,6,2.4,9.5,2.4  c11.1,0,20.2-9.1,20.2-20.2c0-4.9-1.7-9.3-4.6-12.8l9.5-9.5v5.3c0,1.1,0.9,2,2,2s2-0.9,2-2V2.5C72.5,1.4,71.6,0.5,70.5,0.5z   M20.7,48.4c-8.9,0-16.2-7.3-16.2-16.2S11.8,16,20.7,16c2.4,0,4.6,0.5,6.6,1.4c-2.6,3.4-4.1,7.6-4.1,12.2c0,6.2,2.8,11.8,7.3,15.5  C27.8,47.2,24.4,48.4,20.7,48.4z M33.4,42.3c-3.8-3-6.2-7.6-6.2-12.7c0-3.8,1.3-7.3,3.6-10.1c3.8,3,6.2,7.6,6.2,12.7  C36.9,36,35.6,39.5,33.4,42.3z M43.4,45.8c-2.4,0-4.6-0.5-6.6-1.4c2.6-3.4,4.1-7.6,4.1-12.2c0-6.2-2.8-11.8-7.3-15.5  c2.7-2.1,6.1-3.3,9.8-3.3c8.9,0,16.2,7.3,16.2,16.2S52.4,45.8,43.4,45.8z"/><text x="0" y="88" fill="#000000" font-size="5px" font-weight="bold" font-family="'Helvetica Neue', Helvetica, Arial-Unicode, Arial, Sans-serif">Created by Icon Fair</text><text x="0" y="93" fill="#000000" font-size="5px" font-weight="bold" font-family="'Helvetica Neue', Helvetica, Arial-Unicode, Arial, Sans-serif">from the Noun Project</text></svg>