<svg xmlns="http://www.w3.org/2000/svg" viewBox="0 0 32 40" x="0px" y="0px"><g data-name="Layer 2"><path d="M30,1H22a1,1,0,0,0,0,2h5.586l-8.552,8.552a11.017,11.017,0,1,0,1.414,1.414L29,4.414V10a1,1,0,0,0,2,0V2A1,1,0,0,0,30,1ZM12,29a9,9,0,1,1,9-9A9.01,9.01,0,0,1,12,29Z"/></g><text x="0" y="47" fill="#000000" font-size="5px" font-weight="bold" font-family="'Helvetica Neue', Helvetica, Arial-Unicode, Arial, Sans-serif">Created by Ilham Fitrotul Hayat</text><text x="0" y="52" fill="#000000" font-size="5px" font-weight="bold" font-family="'Helvetica Neue', Helvetica, Arial-Unicode, Arial, Sans-serif">from the Noun Project</text></svg>